first trial
nRows=29
nColumns=38

# SIMM Motion File Header:
name Sujet_06_velo_80.mvnx
datacolumns 38
datarows 29
otherdata 1
range 11.8500 12.3160
endheader
time pelvis_tilt  pelvis_list  pelvis_rotation  pelvis_tx  pelvis_ty  pelvis_tz  hip_flexion_r  hip_adduction_r  hip_rotation_r  knee_angle_r  ankle_angle_r  subtalar_angle_r  mtp_angle_r  hip_flexion_l  hip_adduction_l  hip_rotation_l  knee_angle_l  ankle_angle_l  subtalar_angle_l  mtp_angle_l  lumbar_extension  lumbar_bending  lumbar_rotation  arm_flex_r  arm_add_r  arm_rot_r  elbow_flex_r  pro_sup_r  wrist_flex_r  wrist_dev_r  arm_flex_l  arm_add_l  arm_rot_l  elbow_flex_l  pro_sup_l  wrist_flex_l  wrist_dev_l
11.8500	-8.8540	3.7983	-11.8820	0.0000	1.2500	-0.0000	45.5273	4.1714	-4.4575	42.7844	-3.9154	-9.7371	0.0000	70.2547	-12.2609	3.0237	106.2538	-10.2112	0.6517	0.0000	-13.8728	-2.3788	0.6418	83.5547	8.3748	9.6425	8.3616	114.6414	-30.1261	-13.6367	90.5203	-3.5920	28.5051	12.4628	125.1629	-13.5072	-7.0923	
11.8660	-8.8420	3.9878	-11.3242	0.0000	1.2500	-0.0000	42.7290	3.2059	-4.6496	40.1326	-5.0659	-9.4696	-0.0000	73.1788	-12.0473	4.0169	107.8957	-9.1643	0.4143	-0.0000	-13.8286	-2.4450	0.4786	83.1092	8.1301	9.7671	8.5415	114.2450	-30.2250	-13.7146	90.6960	-3.4289	28.1037	12.6572	126.1500	-13.4408	-7.0096	
11.8830	-8.7740	4.1268	-10.7982	0.0000	1.2500	-0.0000	40.3696	2.2963	-4.7923	38.4695	-6.1908	-9.1011	0.0000	75.8867	-11.7241	4.7792	108.9279	-7.7241	0.0137	0.0000	-13.8105	-2.4735	0.3003	82.7659	7.9310	10.1014	8.6056	113.7521	-30.1674	-13.7070	90.7446	-3.3768	27.3950	13.0300	127.2983	-13.5533	-6.9302	
11.9000	-8.7103	4.2556	-10.3938	0.0000	1.2500	-0.0000	38.6015	1.5098	-5.0139	37.9076	-6.9869	-8.6809	-0.0000	78.2111	-11.3663	5.4206	109.2549	-6.3303	-0.4895	-0.0000	-13.8211	-2.4993	0.1388	82.5655	7.7625	10.3869	8.6582	113.3066	-30.0815	-13.6544	90.8058	-3.3866	26.7308	13.3867	128.3257	-13.6542	-6.8476	
11.9160	-8.6733	4.3979	-10.1630	0.0000	1.2500	-0.0000	37.5028	0.8509	-5.3837	38.5622	-7.3096	-8.1655	0.0000	80.1589	-11.0223	6.0528	108.8310	-5.0671	-1.1336	-0.0000	-13.8705	-2.5426	0.0035	82.5596	7.6141	10.5411	8.7384	112.9414	-30.0002	-13.5573	90.9334	-3.4702	26.2380	13.7035	129.1466	-13.6814	-6.7582	
11.9330	-8.6415	4.5307	-10.0535	0.0000	1.2500	-0.0000	36.9976	0.2968	-5.7861	40.3141	-7.3038	-7.5927	-0.0000	81.7259	-10.6691	6.5917	107.7017	-3.8561	-1.8744	-0.0000	-13.9482	-2.5826	-0.1151	82.6966	7.4951	10.6470	8.8059	112.6233	-29.8912	-13.4150	91.0747	-3.6145	25.7902	14.0078	129.8494	-13.6970	-6.6664	
11.9500	-8.6086	4.6259	-9.9989	0.0000	1.2500	-0.0000	37.0090	-0.1247	-6.0732	42.9268	-7.1015	-7.1235	0.0000	82.7337	-10.2798	6.8642	105.9135	-2.8854	-2.5354	0.0000	-14.0266	-2.5922	-0.2132	82.8611	7.4222	10.6930	8.8436	112.3975	-29.7838	-13.2652	91.2103	-3.7327	25.3586	14.1884	130.4176	-13.6982	-6.5794	
11.9660	-8.5719	4.6830	-9.9906	0.0000	1.2500	-0.0000	37.5976	-0.3881	-6.2348	46.4836	-6.7089	-6.8243	-0.0000	83.1236	-9.8271	6.8319	103.4290	-2.2281	-3.1118	0.0000	-14.1025	-2.5641	-0.2870	83.0176	7.4113	10.6588	8.8433	112.2971	-29.6910	-13.1118	91.3529	-3.7916	24.8736	14.1710	130.8634	-13.6695	-6.4919	
11.9830	-8.5345	4.7026	-10.0373	0.0000	1.2500	-0.0000	38.7059	-0.5222	-6.2725	50.9134	-6.1184	-6.6333	0.0000	82.9615	-9.3496	6.5486	100.3024	-1.8065	-3.6121	-0.0000	-14.1790	-2.5060	-0.3402	83.2016	7.4467	10.5648	8.8130	112.2893	-29.5995	-12.9506	91.4893	-3.8257	24.4045	14.0313	131.1764	-13.6270	-6.4100	
12.0000	-8.4984	4.6577	-10.0971	0.0000	1.2500	-0.0000	40.0797	-0.5735	-6.0639	55.7415	-5.4417	-6.5243	-0.0000	82.2581	-8.9169	5.9771	96.7251	-1.5730	-3.8845	0.0000	-14.2381	-2.4133	-0.3797	83.4040	7.4983	10.4607	8.7603	112.3204	-29.4994	-12.8061	91.5597	-3.8490	24.1310	13.8831	131.3059	-13.6155	-6.3590	
12.0160	-8.4612	4.5104	-10.1423	0.0000	1.2500	-0.0000	41.6602	-0.5356	-5.5104	60.9226	-4.6471	-6.5286	0.0000	80.9939	-8.5256	5.0412	92.6980	-1.5203	-3.8085	-0.0000	-14.2732	-2.2678	-0.4093	83.6228	7.5556	10.3379	8.6836	112.3731	-29.3748	-12.6776	91.5192	-3.8469	24.1906	13.7690	131.1710	-13.6541	-6.3503	
12.0330	-8.4249	4.2984	-10.2006	0.0000	1.2500	-0.0000	43.5072	-0.3921	-4.7237	66.4726	-3.7673	-6.6297	0.0000	79.1951	-8.1480	3.8258	88.2465	-1.6514	-3.5113	-0.0000	-14.2911	-2.0877	-0.4252	83.8600	7.6292	10.2046	8.5848	112.4646	-29.2414	-12.5656	91.4125	-3.8326	24.4455	13.6466	130.8518	-13.7237	-6.3724	
12.0500	-8.3991	4.1084	-10.3144	0.0000	1.2500	-0.0000	45.5444	-0.1745	-3.8954	72.0123	-3.0102	-6.7192	-0.0000	76.9381	-7.8140	2.5285	83.5768	-1.9313	-3.2012	0.0000	-14.2935	-1.9231	-0.4233	84.1124	7.7211	10.1368	8.4760	112.5929	-29.1367	-12.4976	91.3138	-3.8617	24.6626	13.5031	130.5378	-13.8121	-6.4171	
12.0660	-8.3864	3.9699	-10.5037	0.0000	1.2500	-0.0000	47.7497	0.1110	-3.0389	77.5234	-2.3843	-6.7412	0.0000	74.1856	-7.5115	1.1799	78.6746	-2.3869	-2.9010	-0.0000	-14.2813	-1.7886	-0.4016	84.3952	7.8356	10.1642	8.3517	112.7653	-29.0846	-12.4983	91.2739	-3.9674	24.6952	13.3268	130.3500	-13.9258	-6.4752	
12.0830	-8.3838	3.8533	-10.7485	0.0000	1.2500	-0.0000	50.1421	0.4902	-2.1547	83.0314	-1.8803	-6.7318	0.0000	70.9777	-7.2049	-0.2588	73.5316	-2.9882	-2.5757	0.0000	-14.2538	-1.6693	-0.3622	84.6925	7.9697	10.2571	8.2174	112.9741	-29.0613	-12.5431	91.2418	-4.1169	24.6902	13.1301	130.1682	-14.0585	-6.5563	
12.1000	-8.3915	3.7570	-11.0306	0.0000	1.2500	-0.0000	52.7063	0.9620	-1.4112	88.2488	-1.6799	-6.7114	0.0000	67.5022	-6.9045	-1.7023	68.3458	-3.6160	-2.3441	0.0000	-14.2098	-1.5708	-0.3080	84.9543	8.1142	10.4023	8.1017	113.1951	-29.0330	-12.5847	91.1395	-4.2662	24.8542	12.9380	129.8197	-14.1797	-6.6798	
12.1160	-8.4103	3.6879	-11.3521	0.0000	1.2500	-0.0000	55.4934	1.4890	-0.8741	93.1756	-1.9924	-6.7068	0.0000	63.6936	-6.5881	-3.1689	63.0354	-4.1777	-2.3208	0.0000	-14.1447	-1.4949	-0.2406	85.1716	8.2690	10.6324	8.0051	113.4086	-28.9861	-12.6171	90.9198	-4.3830	25.3288	12.7357	129.1631	-14.2763	-6.8622	
12.1330	-8.4398	3.6389	-11.7109	0.0000	1.2500	-0.0000	58.4522	2.0993	-0.4969	97.8238	-2.6086	-6.6924	-0.0000	59.6178	-6.2412	-4.6475	57.6702	-4.7685	-2.3970	0.0000	-14.0630	-1.4393	-0.1581	85.3528	8.4341	10.9149	7.9265	113.6343	-28.9342	-12.6467	90.6306	-4.4999	25.9718	12.5349	128.3376	-14.3615	-7.0864	
12.1500	-8.4783	3.5869	-12.0838	0.0000	1.2500	-0.0000	61.4143	2.8723	-0.2815	101.9301	-3.0845	-6.6006	0.0000	55.6514	-5.9300	-6.0162	52.6780	-5.5537	-2.3605	-0.0000	-13.9769	-1.4032	-0.0577	85.4744	8.5993	11.1381	7.8925	113.9072	-28.8840	-12.6448	90.3357	-4.6694	26.5636	12.4029	127.5932	-14.4438	-7.3209	
12.1660	-8.5240	3.5238	-12.4571	0.0000	1.2500	-0.0000	64.3794	3.8436	-0.3140	105.4490	-3.3370	-6.3400	0.0000	51.7872	-5.7267	-7.3082	48.0345	-6.6365	-2.1204	0.0000	-13.8854	-1.3886	0.0533	85.5152	8.7787	11.2590	7.9098	114.2462	-28.8439	-12.6025	90.0870	-4.9357	27.0320	12.3555	127.0496	-14.5192	-7.5841	
12.1830	-8.5786	3.4574	-12.8445	0.0000	1.2500	-0.0000	67.3544	4.9483	-0.5359	108.4419	-3.4545	-5.9994	-0.0000	48.0194	-5.5819	-8.5126	43.7645	-7.9162	-1.7672	-0.0000	-13.7890	-1.3934	0.1824	85.4966	8.9570	11.3208	7.9705	114.6323	-28.8056	-12.5285	89.8325	-5.2548	27.4483	12.3806	126.5888	-14.5922	-7.8576	
12.2000	-8.6465	3.3882	-13.2651	0.0000	1.2500	-0.0000	70.1790	6.1270	-0.7240	110.7969	-3.2423	-5.7863	0.0000	44.7220	-5.4398	-9.4420	40.3720	-9.2523	-1.3574	-0.0000	-13.7025	-1.4098	0.3542	85.4601	9.0795	11.3411	8.0796	115.0426	-28.7512	-12.4204	89.4802	-5.5469	27.8079	12.5058	126.1061	-14.6832	-8.0547	
12.2160	-8.7361	3.3344	-13.7605	0.0000	1.2500	-0.0000	72.8516	7.4325	-0.7755	112.4846	-2.5543	-5.7383	-0.0000	41.9594	-5.3057	-9.9238	37.9457	-10.7097	-0.8309	-0.0000	-13.6235	-1.4459	0.5974	85.4019	9.1191	11.2970	8.2630	115.4993	-28.6828	-12.2590	88.9165	-5.7782	28.1033	12.7806	125.5396	-14.8144	-8.1373	
12.2330	-8.8388	3.2772	-14.2892	0.0000	1.2500	-0.0000	75.3725	8.8267	-0.7989	113.5266	-1.5299	-5.8439	-0.0000	39.6573	-5.2451	-10.1366	36.3947	-12.2335	-0.2269	0.0000	-13.5542	-1.4939	0.8834	85.3272	9.1027	11.2113	8.4929	115.9792	-28.5994	-12.0646	88.2549	-5.9815	28.3421	13.1546	124.9515	-14.9628	-8.1436	
12.2500	-8.9330	3.1612	-14.7448	0.0000	1.2500	-0.0000	77.5805	10.1208	-0.8528	113.8741	-0.3981	-6.2201	0.0000	37.9855	-5.3056	-10.4123	35.9583	-13.4944	0.2445	0.0000	-13.5158	-1.5230	1.1513	85.2909	9.0572	11.1713	8.6965	116.3927	-28.4790	-11.8941	87.7433	-6.1772	28.5424	13.5054	124.4219	-15.0808	-8.1021	
12.2660	-9.0125	2.9291	-15.0745	0.0000	1.2500	-0.0000	79.4862	11.2733	-0.8778	113.4900	0.8718	-7.0334	0.0000	37.0723	-5.5262	-10.9506	36.8614	-14.3365	0.4544	0.0000	-13.5232	-1.5083	1.3852	85.3147	8.9848	11.2296	8.8426	116.7066	-28.2988	-11.7786	87.5065	-6.3839	28.6894	13.8000	123.9894	-15.1515	-8.0032	
12.2830	-9.0827	2.6388	-15.3313	0.0000	1.2500	-0.0000	81.0798	12.3162	-0.8870	112.4086	2.2389	-8.0708	-0.0000	36.7875	-5.8899	-11.5462	38.8853	-14.9045	0.5420	-0.0000	-13.5610	-1.4759	1.6011	85.3774	8.8839	11.3333	8.9654	116.9548	-28.0814	-11.6891	87.4199	-6.5843	28.7985	14.0718	123.6148	-15.1912	-7.8560	
12.3000	-9.1397	2.4062	-15.5683	0.0000	1.2500	-0.0000	82.1661	13.1633	-1.0182	110.6890	3.3754	-8.8918	-0.0000	36.9143	-6.3487	-11.9199	41.6106	-15.3144	0.6737	0.0000	-13.6053	-1.4706	1.7850	85.4690	8.7769	11.4117	9.0917	117.1495	-27.8721	-11.5923	87.3582	-6.7462	28.9338	14.2972	123.2610	-15.2024	-7.7173	
12.3160	-9.1850	2.2725	-15.8242	0.0000	1.2500	-0.0000	82.6759	13.8077	-1.3266	108.2768	4.1961	-9.3456	0.0000	37.4253	-6.9138	-11.9610	45.0150	-15.5884	0.9009	-0.0000	-13.6535	-1.5148	1.9323	85.6087	8.6478	11.4303	9.2410	117.2945	-27.6667	-11.4624	87.2892	-6.8610	29.1516	14.4559	122.9044	-15.1609	-7.6005	
